<svg id="Capa_1" data-name="Capa 1" xmlns="http://www.w3.org/2000/svg" viewBox="0 0 811.52 814.75"><defs><style>.cls-1{fill:#fff;opacity:0.2;}</style></defs><title>logito_fondo</title><path class="cls-1" d="M540,113.59C316,113.59,134.24,295.9,134.24,521S316,928.34,540,928.34,945.76,745.91,945.76,521,764.05,113.59,540,113.59Zm0,773.56c-201.45,0-364.73-163.93-364.73-366.19S338.55,154.78,540,154.78,904.73,318.71,904.73,521,741.45,887.15,540,887.15Z" transform="translate(-134.24 -113.59)"/><path class="cls-1" d="M297.28,713.91A312.86,312.86,0,0,0,367.21,779c47.21-15.64,104.17-26,172.79-26s125.47,10.39,172.68,26a312.82,312.82,0,0,0,69.92-65.07c-56.13-50.39-134.5-89.55-242.6-89.55S353.53,663.52,297.28,713.91Z" transform="translate(-134.24 -113.59)"/><path class="cls-1" d="M810.07,673a309.67,309.67,0,0,0,36.51-108.53c-51.73-68.06-143.42-127.15-306.46-127.15S285.27,496.49,233.54,564.42a310.29,310.29,0,0,0,36.51,108.65c66.59-47.16,161-95,270.31-95C649.41,578,743.59,625.79,810.07,673Z" transform="translate(-134.24 -113.59)"/><path class="cls-1" d="M848.6,497.45a309.1,309.1,0,0,0-31-114C761,314.41,673.31,253.76,540,253.76S318.8,314.41,262.2,383.54a307.73,307.73,0,0,0-30.92,113.91C286.69,446.22,383.14,390.11,540,390.11S793.18,446.1,848.6,497.45Z" transform="translate(-134.24 -113.59)"/></svg>