<?xml version="1.0" encoding="utf-8"?>
<!-- Generator: Adobe Illustrator 24.0.2, SVG Export Plug-In . SVG Version: 6.00 Build 0)  -->
<svg version="1.1" id="Layer_1" xmlns="http://www.w3.org/2000/svg" xmlns:xlink="http://www.w3.org/1999/xlink" x="0px" y="0px"
	 viewBox="0 0 50.5 50.5" style="enable-background:new 0 0 50.5 50.5;" xml:space="preserve">
<style type="text/css">
	.st0{fill:#FFFFFF;}
	.st1{fill:#12B5E1;}
</style>
<title>login</title>
<path class="st0" d="M10.9,41.2c-0.8,0-1.5-0.7-1.5-1.5c0-0.2,0-0.3,0.1-0.5c1-2.5,2.5-4.9,4.3-6.8c2.8-3,6.8-4.7,10.9-4.6h0.1
	c1.3,0,2.5,0.1,3.8,0.4c0.5,0.1,1-0.2,1.2-0.7v-0.1c0.1-0.5-0.2-1-0.7-1.2c-1.4-0.3-2.8-0.5-4.3-0.5h-0.1c-4.7-0.1-9.2,1.8-12.4,5.2
	c-2,2.1-3.6,4.6-4.7,7.4c-0.4,0.8-0.4,1.8-0.1,2.6c0.5,1.4,1.8,2.3,3.3,2.3h7.2c0.6,0,1-0.4,1-1l0,0c0-0.6-0.4-1-1-1L10.9,41.2z"/>
<path class="st0" d="M25.4,7.3c-4.5,0-8.1,3.6-8.1,8.1s3.6,8.1,8.1,8.1s8.1-3.6,8.1-8.1C33.5,10.9,29.9,7.3,25.4,7.3z M31.7,15.4
	c0,3.5-2.8,6.3-6.3,6.3s-6.3-2.8-6.3-6.3s2.8-6.3,6.3-6.3c0,0,0,0,0,0C28.9,9.1,31.7,12,31.7,15.4z"/>
<path class="st0" d="M18.3,35.9l2.7-2.7c0.2-0.2,0.4-0.2,0.6-0.2c0.2,0,0.4,0.1,0.6,0.3l0.9,1l1-1c0.2-0.2,0.4-0.3,0.6-0.3l0,0
	c0.2,0,0.4,0.1,0.6,0.3l1,1.1l1.2-1.2c0.2-0.1,0.4-0.2,0.6-0.2c0.2,0,0.4,0.1,0.6,0.3c0.3,0.3,0.3,0.8,0,1.2c0,0,0,0,0,0l-1.8,1.7
	c-0.2,0.2-0.4,0.2-0.6,0.2c-0.2,0-0.4-0.1-0.6-0.3l-1-1.1l-1,1c-0.2,0.2-0.4,0.3-0.6,0.3l0,0c-0.2,0-0.5-0.1-0.6-0.3l-0.9-1L20,36.4
	l1.8,1.7h10.1c0.4,0,0.7,0.2,0.8,0.6l0.6,1.8c0.2,0.6,0.7,1,1.4,1h4c0.6,0,1.2-0.4,1.4-1l1.2-3.7c0.1-0.3,0.1-0.6,0-0.9l-1.2-3.7
	c-0.2-0.6-0.7-1-1.4-1h-4c-0.6,0-1.2,0.4-1.4,1l-0.8,2.3c-0.1,0.4-0.6,0.6-1,0.5c-0.3-0.1-0.6-0.4-0.6-0.8c0-0.1,0-0.1,0-0.2
	l0.8-2.3c0.4-1.3,1.6-2.1,2.9-2.1h4c1.3,0,2.5,0.8,2.9,2.1l0,0l1.2,3.7c0.2,0.6,0.2,1.4,0,2l-1.2,3.7c-0.4,1.3-1.6,2.1-2.9,2.1h-4
	c-1.3,0-2.5-0.9-2.9-2.1l-0.4-1.3h-9.8c-0.2,0-0.4-0.1-0.5-0.2l-2.7-2.5C18.1,37,18,36.8,18,36.6C18,36.3,18.1,36,18.3,35.9z"/>
<circle class="st1" cx="38.7" cy="36.3" r="1.1"/>
</svg>
